HIERARCHY
ROOT pelvis
{
	OFFSET 0.000000 0.000000 0.000000
	CHANNELS 6 Xposition Yposition Zposition Zrotation Xrotation Yrotation
	JOINT lfemur
	{
		OFFSET 11.446000 0.000000 0.000000
		CHANNELS 3 Zrotation Xrotation Yrotation
		JOINT ltibia
		{
			OFFSET 0.000000 -42.030400 0.000000
			CHANNELS 3 Zrotation Xrotation Yrotation
			JOINT lfoot
			{
				OFFSET 0.000000 -39.930200 0.000000
				CHANNELS 3 Zrotation Xrotation Yrotation
				JOINT ltoes
				{
					OFFSET 0.000000 0.000000 11.775800
					CHANNELS 3 Zrotation Xrotation Yrotation
					End Site
					{
					    OFFSET 0.000000 0.000000 5.000000
					}
				}
			}
		}
	}
	JOINT rfemur
	{
		OFFSET -11.446000 0.000000 0.000000
		CHANNELS 3 Zrotation Xrotation Yrotation
		JOINT rtibia
		{
			OFFSET 0.000000 -42.030400 0.000000
			CHANNELS 3 Zrotation Xrotation Yrotation
			JOINT rfoot
			{
				OFFSET 0.000000 -39.930200 0.000000
				CHANNELS 3 Zrotation Xrotation Yrotation
				JOINT rtoes
				{
					OFFSET 0.000000 0.000000 11.775800
					CHANNELS 3 Zrotation Xrotation Yrotation
					End Site
					{
					    OFFSET 0.000000 0.000000 5.000000
					}
				}
			}
		}
	}
	JOINT thorax
	{
		OFFSET 0.000000 11.255600 -5.000000
		CHANNELS 3 Zrotation Xrotation Yrotation
		JOINT head
		{
			OFFSET 0.000000 43.799300 0.000000
			CHANNELS 3 Zrotation Xrotation Yrotation
			End Site
			{
			    OFFSET 0.000000 5.000000 0.000000
			}
		}
		JOINT lclavicle
		{
			OFFSET 0.000000 39.863000 0.000000
			CHANNELS 3 Zrotation Xrotation Yrotation
			JOINT lhumerus
			{
				OFFSET 17.380600 4.958300 0.000000
				CHANNELS 3 Zrotation Xrotation Yrotation
				JOINT lradius
				{
					OFFSET 0.000000 -27.561300 0.000000
					CHANNELS 3 Zrotation Xrotation Yrotation
					JOINT lhand
					{
						OFFSET 0.000000 -26.933000 0.000000
						CHANNELS 3 Zrotation Xrotation Yrotation
						End Site
						{
						    OFFSET 0.000000 -5.000000 0.000000
						}
					}
				}
			}
		}
		JOINT rclavicle
		{
			OFFSET 0.000000 39.863000 0.000000
			CHANNELS 3 Zrotation Xrotation Yrotation
			JOINT rhumerus
			{
				OFFSET -17.380600 4.958300 0.000000
				CHANNELS 3 Zrotation Xrotation Yrotation
				JOINT rradius
				{
					OFFSET 0.000000 -27.561300 0.000000
					CHANNELS 3 Zrotation Xrotation Yrotation
					JOINT rhand
					{
						OFFSET 0.000000 -26.933000 0.000000
						CHANNELS 3 Zrotation Xrotation Yrotation
						End Site
						{
						    OFFSET 0.000000 -5.000000 0.000000
						}
					}
				}
			}
		}
	}
}
MOTION
Frames:	9
Frame Time:	0.0333333
28.3392 84.4206 62.453 5.24944 -0.605778 -81.9483 0.24557 -28.6435 -10.6479 0.0981965 23.4799 -0.406124 0.943165 8.34827 -9.16478 -3.31969e-015 -5 -1.59635e-015 3.22528 14.5195 7.78424 -0.119583 25.7331 0.659491 -12.3673 -0.747849 7.00357 3.18055e-015 -5 -0 -0.104703 4.13879 4.69122 3.37026 -1.58036 -11.5826 -3.72721e-016 9.06955e-016 -1.59028e-015 11.1201 -6.95585 -11.1469 17.9918 -26.1282 8.11324 -0.0419274 -0.807389 -5.75869 -3.72721e-016 9.06955e-016 -1.59028e-015 -6.86974 -1.51514 19.1684 -15.5836 -23.2897 -6.671 0.00138415 0.0446382 -0.316172 
25.0264 85.0024 64.082 4.8143 -1.83503 -84.4906 -0.336556 -25.0952 -8.92424 0.09496 23.4085 -0.302748 1.3218 5.61864 -10.6808 -2.24628e-015 -5 1.59635e-015 0.97495 7.31607 7.40161 -0.326439 42.1191 1.66206 -13.1318 5.90573 9.77184 -2.78262e-016 -5 -3.1927e-015 -1.37011 4.49602 5.17081 3.58742 -1.89995 -9.92327 1.86361e-017 -3.63248e-015 -1.59028e-015 10.5937 -5.60758 -10.0062 17.7902 -25.8987 7.98935 -0.0294105 -0.672412 -4.79345 1.86361e-017 -3.63248e-015 -1.59028e-015 -6.43585 -0.729739 14.3737 -14.7586 -22.2687 -6.19699 0.0235922 -0.599013 4.26711 
22.0453 85.61 65.7627 5.02395 -4.9403 -86.9119 -3.01774 -20.9709 -5.51939 0.0772959 20.343 -0.286988 1.47625 5.86799 -11.5405 1.59028e-015 -5 -0 -3.10624 -1.10442 6.83004 -0.667643 54.4328 0.693931 -4.14365 11.3577 10.1024 4.90996e-015 -5 1.59635e-015 -5.61387 4.49283 4.85664 4.62578 -2.63548 -8.28083 -2.06902e-032 7.45443e-016 1.59028e-015 11.7498 -4.82251 -10.3808 17.0849 -25.0841 7.56025 -0.0234784 -0.59761 -4.25942 -2.06902e-032 7.45443e-016 1.59028e-015 -5.52088 -1.14303 15.4604 -14.7694 -22.2825 -6.20307 0.0102487 -0.38088 2.71217 
18.779 86.0031 67.1344 3.91535 -3.96829 -88.0304 -2.96278 -17.3828 -5.1905 0.0752623 20.0125 -0.278818 1.12798 3.50208 -10.7193 1.45115e-015 -5 -1.59635e-015 -2.30549 -6.16806 5.20207 -1.07464 62.2975 1.14101 -3.05035 7.34798 8.77339 3.04142e-015 -5 -1.59635e-015 -3.45191 5.79421 3.69816 2.50849 -2.647 -7.35568 5.96354e-016 4.28629e-016 -0 10.9789 -5.04993 -11.184 15.6505 -23.3718 6.70983 -0.0378983 -0.766565 -5.46603 5.96354e-016 4.28629e-016 -0 -6.26482 -1.91123 13.3283 -14.9219 -22.4732 -6.28987 0.0400248 -0.789049 5.62486 
15.6957 86.238 68.2949 3.54832 -4.90907 -89.1224 -4.13353 -14.2959 -5.47708 0.0634636 19.3587 -0.248496 1.08755 2.54931 -10.455 1.59028e-015 -5 -0 -3.26131 -11.8872 4.11951 -1.57635 68.1818 1.69662 -2.02925 4.09813 5.87247 1.72941e-015 -5 1.59635e-015 -4.669 6.23327 3.00185 2.18969 -2.67068 -7.58813 1.2424e-016 -1.36354e-015 -0 11.23 -5.66804 -9.28176 13.7249 -20.9531 5.61817 -0.1696 -1.63815 -11.7426 1.2424e-016 -1.36354e-015 -0 -5.85678 -2.12282 13.6058 -16.1697 -24.0008 -7.01429 0.0552229 -0.930133 6.63521 
12.5264 86.3639 69.2722 3.21442 -4.84866 -89.82 -4.7388 -11.8069 -5.45416 0.066597 19.5231 -0.27308 0.892599 0.898579 -10.0912 -7.95139e-016 -5 -0 -3.39619 -17.2134 2.06418 -1.93872 71.0247 2.07963 -1.30979 0.672907 2.79779 4.06508e-015 -5 5.58723e-015 -4.61533 6.54266 1.70646 2.48604 -2.6116 -8.0971 2.48481e-017 3.96016e-015 3.97569e-016 11.5947 -6.16487 -8.66568 12.3347 -19.1212 4.86857 -0.234998 -1.92634 -13.8468 2.48481e-017 3.96016e-015 3.97569e-016 -4.56097 -2.32307 12.661 -17.3949 -25.4453 -7.74817 0.0757014 -1.09153 7.79413 
9.42365 85.9458 70.2148 2.91033 -5.16363 -90.1235 -5.71022 -10.3651 -1.2495 0.0754693 21.0908 -0.297579 0.503234 -2.52435 -11.462 1.99145e-017 -5 -3.1927e-015 -3.77799 -22.1012 -0.324704 -1.99324 71.3772 2.09958 -1.08141 -2.76547 0.352406 2.63538e-014 -5 7.58267e-015 -4.68893 6.94352 -0.889982 2.37821 -2.1733 -7.23943 -9.93923e-017 -3.95861e-015 1.98785e-016 10.9383 -6.11844 -5.92683 11.6949 -18.2539 4.53504 -0.314575 -2.22468 -16.0454 -9.93923e-017 -3.95861e-015 1.98785e-016 -5.40464 -2.66949 16.5253 -19.0231 -27.2794 -8.75593 0.00532894 -0.255347 1.81961 
6.44035 85.4079 70.9303 2.85721 -4.27352 -90.096 -5.56868 -9.74881 -0.571736 0.098696 24.2435 -0.229147 1.12737 -6.15885 -10.9776 -6.73365e-016 -5 -1.59635e-015 -2.88876 -26.7013 -2.6119 -1.64258 68.6925 1.73026 -1.14653 -4.73233 0.0428088 5.53353e-016 -5 1.09106e-014 -3.70824 7.57987 -1.2584 2.89663 -2.76171 -8.58837 -9.93923e-017 -1.71141e-015 -0 10.8546 -7.76201 -7.96987 11.253 -17.6463 4.30914 -0.294403 -2.15322 -15.5176 -9.93923e-017 -1.71141e-015 -0 -4.891 -3.07005 15.7452 -20.4203 -28.7788 -9.64833 0.00380455 0.205933 -1.46305 
3.19456 85.0937 71.6879 2.24375 -5.09746 -91.1737 -7.00906 -6.40021 -1.28565 0.100345 23.7992 0.0448003 3.32585 -7.79313 -10.5472 -3.97569e-016 -5 -0 -4.61407 -29.9493 -5.79081 -1.18303 63.7448 1.29604 -1.13471 -6.11904 2.14977 -4.00002e-016 -5 -4.58951e-015 -5.33139 8.75985 -1.06073 3.86012 -3.5173 -8.78123 -1.18028e-016 5.41222e-016 7.95139e-016 11.1366 -8.79519 -7.14406 11.5025 -17.9903 4.43629 -0.442305 -2.62806 -19.0618 -1.18028e-016 5.41222e-016 7.95139e-016 -3.95806 -3.90199 14.9379 -20.9215 -29.3006 -9.97447 -9.02227e-005 0.0445975 -0.314723 
